<?xml version="1.0" encoding="utf-8"?>
<!-- Generator: Adobe Illustrator 16.0.0, SVG Export Plug-In . SVG Version: 6.00 Build 0)  -->
<!DOCTYPE svg PUBLIC "-//W3C//DTD SVG 1.1//EN" "http://www.w3.org/Graphics/SVG/1.1/DTD/svg11.dtd">
<svg version="1.1" id="Layer_1" xmlns="http://www.w3.org/2000/svg" xmlns:xlink="http://www.w3.org/1999/xlink" x="0px" y="0px"
	 width="200px" height="94px" viewBox="0 0 200 94" enable-background="new 0 0 200 94" xml:space="preserve">
<path fill="#CEE87C" d="M148.425,24.313c3.696,1.979,3.707,1.981,1.097,4.738c-0.51,0.538-0.707,1.049-0.738,1.648
	c-0.088,1.574-1.137,2.98-3.614,4.1c-1.601,0.722-3.005,1.57-4.499,2.362c0.055,0.235-1.484,0.755,0.198,0.67
	c1.124-0.056,2.271,0.267,3.384-0.169c3.67-0.295,7.338-0.691,11.012-0.486c0.895,0.049,1.34,0.083,1.379,0.723
	c0.059,0.963,0.727,1.843,3.055,1.816c0.621-0.007,1.313,0.177,1.008,0.553c-0.721,0.89,0.488,0.868,1.406,1.095
	c1.166,0.288,1.119,0.708-0.121,1.087c-0.74,0.228-1.57,0.398-2.209,0.691c-0.771,0.354-2.482,0.531-1.982,1.195
	c0.52,0.688,2.07,0.903,3.535,0.767c1.168-0.109,2.325-0.36,3.453-0.604c0.986-0.212,1.24,0.126,1.57,0.448
	c1.813,1.075,4.244,0.642,6.566,0.471c0.723,1.354,3.002,1.337,5.072,1.444c0.854,0.044,1.303,0.158,1.219,0.641
	c-0.088,0.931-0.818,1.753-1.814,2.533c-0.344,0.423-0.578,0.86-0.877,1.288c-0.224,0.316-1.824,0.658,0.086,0.984
	c1.078,0.186,0.908,1.265-0.211,1.349c-3.15,0.233-1.176,1.237-1.551,1.87c-1.92,0.813-4.219,1.068-6.41,1.363
	c-7.652,1.023-15.057,2.631-22.672,3.727c-2.225,0.32-4.439,0.753-6.682,0.919c-9.906,0.733-19.128,2.956-28.418,4.965
	c-7.83,1.694-15.462,3.705-23.234,5.497c-8.333,1.921-16.464,4.105-24.663,6.205c-2,0.08-4.274,1.059-5.861-0.234
	c-0.145-1.037-0.859-1.646-3.123-1.729c-1.554-0.059-3.566-0.018-4.339-1.047c-1.753-1.582-2.024-1.619-5.377-1.191
	c-2.97,0.379-5.674,0.252-7.611-1.049c-1.588-0.285-3.609,0.211-4.926-0.566c-0.259-0.09-0.451-0.213-0.579-0.365
	c-0.122-0.306,0.114-0.657-0.291-0.926c-0.344-0.232-0.647-0.479-0.96-0.722c-0.874-0.421-2.727-0.038-2.991-0.956
	c-0.412-0.15-0.74-0.464-0.499-0.628c2.012-1.372,2.041-3.149,4.064-4.544c2.253-1.553,4.007-3.301,6.708-4.684
	c1.181-1.326,3.559-2.1,5.227-3.18c0.211-0.078,0.438-0.175,0.418-0.189c-0.249-0.205,0.198-0.006-0.302,0.033
	c-0.207,0.09-0.39,0.17-0.58,0.26c-0.477,0.195-0.854,0.436-1.271,0.656c-2.066,0.871-3.159,0.407-3.818-0.645
	c0.236-1.777,1.276-3.387,3.756-4.771c1-0.561,1.968-1.275,2.331-1.985c0.66-1.29,2.067-2.285,3.384-3.4
	c2.313-1.958,5.653-3.083,8.964-4.313c0.704-0.262,1.518-0.431,2.281-0.643c1.275-0.521,3.599,0.345,4.198-1.07
	c6.68-2.589,13.095-5.366,20.641-7.244c5.071-1.261,9.548-3.26,14.753-4.44c5.269-1.195,10.378-2.674,16.025-3.169
	c2.123-0.295,4.241-0.623,6.403-0.483c0.606,1.127-1.795,0.568-2.052,1.144c0.897-0.4,2.214-0.392,3.235-0.812
	c1.352-0.349,2.688-0.721,4.025-1.027c-1.465,0.046-3.146,1.152-4.461,0.001c0.028-0.171,0.056-0.343,0.067-0.514
	c0.004-0.085,0.007-0.17,0.011-0.256c2.807-0.973,5.928-1.443,9.043-1.673c5.344-0.393,10.745-0.975,16.004-0.312
	c0.265,0.087,0.521,0.179,0.772,0.275l-0.006-0.005C147.037,22.576,146.607,23.789,148.425,24.313z"/>
<g>
	<path fill="#001524" d="M129.523,67.938c1.619-0.092,2.631-1.119,3.08-2.621c0.387-1.283,0.309-2.635,0.229-3.965
		c-0.264-4.313-0.555-8.629-0.762-12.947c-0.023-0.471-0.631-1.339,0.51-1.526c2.789,5.078,4.947,10.415,7.145,15.741
		c0.693,1.684,1.236,4.027,3.655,3.604c2.56-0.449,2.313-2.943,2.437-4.873c0.252-3.98,0.414-7.972,0.511-11.957
		c0.088-3.665-0.103-7.312-1.054-10.887c-0.393-1.473-0.309-3.411-2.418-3.396c-2.188,0.016-2.008,2.059-2.248,3.492
		c-0.67,4.003-1.268,8.021-1.633,12.158c-2.564-3.513-3.933-7.503-5.748-11.271c-0.479-0.997-0.859-2.057-1.457-2.979
		c-1.174-1.812-2.451-1.903-4.137-0.518c-1.457,1.199-1.576,2.902-1.681,4.531c-0.431,6.749-0.632,13.506-0.593,20.27
		c0.011,1.678,0.179,3.339,0.813,4.895C126.764,67.139,127.902,68.029,129.523,67.938z"/>
	<path fill="#001524" d="M43.395,48.686c-0.042-1.166-0.02-2.338-0.137-3.498c-0.308-3.028-1.634-5.589-3.865-7.629
		c-3.806-3.482-7.854-3.279-11.382,0.49c-5.64,6.026-7.574,17.417-4.199,24.99c1.661,3.727,4.601,5.918,8.631,6.24
		c3.913,0.313,6.216-2.225,7.886-5.367C42.856,59.152,43.75,54.036,43.395,48.686z M35.137,61.85
		c-0.202,0.252-0.553,0.383-1.417,0.959c-0.917-6.863-2.103-13.16,0.274-19.44c0.321-0.849,0.484-1.973,1.548-2.155
		c1.205-0.207,1.858,0.836,2.468,1.651c0.477,0.637,0.91,1.408,1.055,2.177C40.226,51.206,39.133,56.878,35.137,61.85z"/>
	<path fill="#001524" d="M63.802,54.021c0.691,1.504,1.151,3.138,2.282,4.414c0.64,0.721,1.442,1.018,2.394,0.771
		c1.018-0.265,1.382-1.06,1.475-1.99c0.054-0.543,0.031-1.116-0.081-1.649c-0.801-3.853-1.939-7.618-4.994-10.292
		c-1.411-1.235-0.969-2.162-0.333-3.347c-0.033-0.74-0.149-1.507,0.623-1.997c0.151-0.145,0.167-0.302,0.046-0.473
		c-0.268-2.649-1.627-4.97-2.265-7.507c-1.041-0.293-1.729-0.967-2.118-1.968l0,0l0,0c-2.573-1.819-5.313-1.38-7.901-0.266
		c-2.571,1.107-4.418,3.275-3.884,6.604c0.367,2.288,0.364,4.648,0.372,6.977c0.02,6.334,0.231,12.652,1.166,18.926
		c0.146,0.982,0.304,1.977,0.593,2.92c0.391,1.28,1.244,2.148,2.685,2.006c1.436-0.142,2.156-1.135,2.232-2.48
		c0.093-1.657,0.056-3.326,0.008-4.984c-0.101-3.533-0.245-7.064-0.372-10.623c0.139-0.06,0.332-0.177,0.54-0.211
		c0.214-0.037,0.446-0.02,0.663,0.019C60.109,49.4,62.432,51.044,63.802,54.021z M54.756,41.89
		c-0.339-1.932-0.745-3.871-1.008-5.829c-0.323-2.407,0.26-3.17,2.667-3.649c0.754-0.149,1.542-0.127,2.314-0.183l0,0l0,0
		c0.62-0.095,1.163-0.025,1.428,0.636c0.373,0.064,0.605,0.282,0.693,0.657c2.099,1.633,2.345,2.118,1.695,4.139
		c-0.032,0.12-0.073,0.242-0.122,0.369C60.575,40.806,59.378,41.417,54.756,41.89z"/>
	<path fill="#001524" d="M113.479,34.688c-0.39-1.719-0.979-3.415-2.037-4.877c-1.659-2.29-3.762-2.271-5.313,0.103
		c-1.095,1.674-1.781,3.556-2.479,5.425c-2.39,6.391-3.229,13.088-3.927,19.812c-0.287,2.75-0.656,5.502-0.458,8.281
		c0.072,1.01,0.141,2.139,1.41,2.299c1.235,0.155,1.712-0.875,2.015-1.836c0.496-1.578,0.892-3.191,1.315-4.795
		c0.341-1.276,0.349-2.791,1.072-3.781c0.825-1.125,2.473-0.144,3.723-0.491c0.529-0.147,1.093-0.179,1.644-0.239
		c2.479-0.275,2.479-0.273,2.599,2.327c0.017,0.332,0.024,0.663,0.037,0.996c-0.035,0.004-0.068,0.007-0.104,0.011
		c0.145,1.206,0.145,2.451,0.467,3.605c0.397,1.425,1.463,2.223,3.019,2.002c1.401-0.196,2.175-1.139,2.205-2.502
		c0.028-1.317-0.022-2.674-0.295-3.959C116.785,49.598,115.161,42.136,113.479,34.688z M110.682,47.884
		c-1.295-0.157-2.615-0.086-4.229-0.12c0.42-4.521,1.343-8.818,2.772-13.076c1.545,3.751,2.479,7.578,3,11.51
		C112.391,47.446,112.124,48.061,110.682,47.884z"/>
	<path fill="#001524" d="M80.892,66.672c5.03,3.833,10.908,1.73,12.314-4.419c0.599-2.619,0.595-5.28,0.372-7.942
		c-0.274-3.259-1.944-4.724-5.222-4.617c-2.201,0.07-3.614,1.211-3.719,3c-0.098,1.666,0.824,2.664,3.086,3.192
		c0.638,0.148,1.318,0.013,1.463,0.939c0.24,1.541-1.172,5.021-2.202,5.298c-1.195,0.322-2.904-1.114-3.794-3.207
		c-0.174-0.407-0.331-0.825-0.45-1.251c-0.716-2.567-1.323-5.154-1.432-7.834c-0.153-3.371,0.341-6.636,1.743-9.722
		c1.444-3.182,2.177-3.481,5.324-2.21c0.837,0.337,1.692,0.908,2.395-0.002c0.739-0.957,0.245-1.877-0.455-2.681
		c-2.275-2.613-6.31-2.923-8.978-0.646c-1.806,1.542-3.042,3.52-3.99,5.665c-3.305,7.47-2.569,14.916,0.284,22.303
		C78.28,64.214,79.452,65.575,80.892,66.672z"/>
	<path fill="#001524" d="M182.212,58.948c-2.413,1.807-3.041,1.598-4.028-1.341c-0.963-2.858-1.404-5.816-1.386-8.838
		c-0.207-3.794,0.101-7.542,1.136-11.208c0.953-3.372,0.961-3.368,4.575-3.786c1.479-0.171,2.104-1.301,1.406-2.587
		c-0.384-0.706-1.019-1.145-1.729-1.499c-2.688-1.33-5.715-0.535-7.597,2.152c-1.868,2.67-2.948,5.721-3.729,8.849
		c-1.713,6.861-1.116,13.419,2.779,19.509c1.245,1.943,2.853,3.395,5.067,4.088c2.664,0.834,5.435-0.135,6.711-2.305
		c0.677-1.146,0.929-2.356-0.203-3.313C184.221,57.836,183.217,58.195,182.212,58.948z"/>
	<path fill="#001524" d="M153.844,60.889c-1.088,0.672-1.457,1.944-0.799,3.235c0.645,1.265,1.793,1.608,3.089,1.428
		c2.323-0.325,4.54-1.075,6.554-2.253c1.664-0.972,1.764-2.381,0.072-3.303c-1.285-0.703-1.363-1.493-1.301-2.653
		c0.188-3.44-0.135-6.858-0.561-10.271c-0.426-3.407-0.791-6.82-1.201-10.229c-0.137-1.13-0.109-1.947,1.117-2.732
		c1.604-1.029,1.248-2.434-0.541-3.122c-1.168-0.449-2.4-0.332-3.942-0.38c-0.667,0.067-1.669,0.105-2.646,0.282
		c-0.953,0.173-1.572,0.809-1.713,1.79c-0.127,0.882,0.326,1.65,1.098,1.84c1.367,0.337,1.629,1.063,1.591,2.378
		c-0.197,6.759,0.245,13.507,0.495,20.257C155.211,58.615,155.422,59.915,153.844,60.889z"/>
	<path fill="#001524" d="M62.958,31.953c1.259,2.349,2.644,4.659,2.255,7.504c0.765-2.956-0.252-5.375-2.24-7.501
		c0,0.001,0,0.001,0,0.002C62.969,31.958,62.964,31.955,62.958,31.953z"/>
	<path fill="#001524" d="M62.958,31.953c-0.003,0-0.006-0.002-0.01-0.003c0.638,2.538,1.998,4.858,2.265,7.507
		C65.602,36.612,64.218,34.302,62.958,31.953z"/>
	<path fill="#001524" d="M62.942,31.927c-0.001-0.003-0.002-0.005-0.002-0.008l0.001,0.001c0,0,0-0.001-0.001-0.001l0.01,0.012
		c0.008,0.009,0.015,0.018,0.024,0.026c-0.341-1.063-1.051-1.726-2.143-1.975C61.589,30.571,62.27,31.245,62.942,31.927z"/>
	<path fill="#001524" d="M62.949,31.95c-0.002-0.008-0.005-0.016-0.006-0.023c-0.673-0.682-1.353-1.355-2.111-1.945l0,0
		C61.22,30.983,61.908,31.657,62.949,31.95z"/>
	<polygon fill="#001524" points="62.94,31.918 62.941,31.92 62.95,31.93 	"/>
	<path fill="#001524" d="M62.958,31.953c0.006,0.002,0.011,0.004,0.016,0.005c-0.009-0.009-0.019-0.018-0.027-0.027
		C62.951,31.938,62.955,31.946,62.958,31.953z"/>
	<polygon fill="#001524" points="62.941,31.92 62.94,31.919 62.942,31.927 62.947,31.931 	"/>
	<path fill="#001524" d="M62.975,31.958c0,0,0-0.001,0-0.002c-0.009-0.009-0.016-0.018-0.024-0.026L62.975,31.958z"/>
	<path fill="#001524" d="M62.947,31.931c-0.002-0.002-0.003-0.003-0.005-0.004c0.001,0.007,0.004,0.016,0.006,0.023
		c0.003,0.001,0.006,0.002,0.01,0.003C62.955,31.946,62.951,31.938,62.947,31.931z"/>
	<path fill="#001524" d="M62.975,31.958L62.95,31.93c-0.003-0.003-0.006-0.007-0.009-0.01c0.002,0.004,0.004,0.007,0.006,0.011
		C62.956,31.94,62.965,31.949,62.975,31.958z"/>
	<path fill="#001524" d="M65.167,39.931c-0.646,0.529-0.013,1.457-0.623,1.997C65.224,41.408,65.307,40.705,65.167,39.931z"/>
	<path fill="#001524" d="M64.545,41.927c0.61-0.54-0.023-1.468,0.623-1.997C64.396,40.42,64.512,41.187,64.545,41.927z"/>
	<path fill="#001524" d="M62.546,37.662c-0.038,0.118-0.078,0.239-0.122,0.369C62.473,37.904,62.514,37.782,62.546,37.662z"/>
	<path fill="#001524" d="M60.837,33.532c0.943,1.243,2.182,2.381,1.709,4.13c0.65-2.021,0.404-2.506-1.695-4.139
		c0.001,0.006,0.004,0.01,0.005,0.015C60.85,33.537,60.844,33.533,60.837,33.532z"/>
	<path fill="#001524" d="M60.837,33.532c-0.006-0.001-0.01-0.003-0.016-0.005c0.653,1.459,1.621,2.806,1.603,4.504
		c0.044-0.129,0.084-0.251,0.122-0.369C63.019,35.913,61.781,34.774,60.837,33.532z"/>
	<path fill="#001524" d="M60.141,32.861c0.005,0.001,0.011,0.003,0.017,0.004c-0.265-0.661-0.808-0.731-1.428-0.636l0,0
		C59.171,32.502,59.803,32.37,60.141,32.861z"/>
	<path fill="#001524" d="M60.111,32.854L60.111,32.854L60.111,32.854z"/>
	<path fill="#001524" d="M60.111,32.854L60.111,32.854L60.111,32.854L60.111,32.854c0.011,0,0.019,0.005,0.03,0.007
		c-0.338-0.492-0.97-0.359-1.411-0.632c0.372,0.426,0.856,0.613,1.401,0.671C60.125,32.884,60.116,32.871,60.111,32.854z"/>
	<path fill="#001524" d="M60.846,33.519c0.001,0.001,0.003,0.003,0.005,0.004c-0.088-0.375-0.32-0.593-0.693-0.657
		c0.001,0.004,0.003,0.007,0.005,0.011C60.48,32.993,60.707,33.208,60.846,33.519z"/>
	<polygon fill="#001524" points="60.8,33.483 60.801,33.485 60.801,33.485 	"/>
	<path fill="#001524" d="M60.8,33.483L60.8,33.483C60.801,33.485,60.801,33.484,60.8,33.483c0.017,0.013,0.03,0.023,0.045,0.035
		c-0.139-0.311-0.365-0.526-0.683-0.643c0.005,0.011,0.011,0.02,0.015,0.032c-0.016-0.002-0.031-0.006-0.047-0.008
		c0.109,0.341,0.337,0.552,0.69,0.626C60.814,33.511,60.806,33.498,60.8,33.483C60.801,33.485,60.801,33.484,60.8,33.483z"/>
	<path fill="#001524" d="M60.856,33.538c-0.001-0.005-0.004-0.009-0.005-0.015c-0.002-0.001-0.004-0.002-0.005-0.004
		C60.849,33.526,60.853,33.531,60.856,33.538z"/>
	<path fill="#001524" d="M60.801,33.485c0.012,0.016,0.024,0.031,0.036,0.046c0.007,0.001,0.012,0.005,0.019,0.006L60.801,33.485
		L60.801,33.485z"/>
	<path fill="#001524" d="M60.801,33.485c0.006,0.014,0.014,0.027,0.02,0.041c0.006,0.002,0.01,0.004,0.016,0.005
		C60.826,33.516,60.813,33.501,60.801,33.485z"/>
	<path fill="#001524" d="M60.801,33.485l0.055,0.053c-0.003-0.007-0.007-0.012-0.01-0.019C60.83,33.507,60.817,33.497,60.801,33.485
		C60.801,33.484,60.801,33.484,60.801,33.485z"/>
	<path fill="#001524" d="M60.147,32.869c0.005,0.002,0.01,0.005,0.015,0.007c-0.001-0.004-0.003-0.007-0.005-0.011
		c-0.006-0.001-0.011-0.003-0.017-0.004C60.143,32.864,60.145,32.866,60.147,32.869z"/>
	<path fill="#001524" d="M60.111,32.854c0.005,0.017,0.014,0.03,0.02,0.046c0.016,0.002,0.031,0.006,0.047,0.008L60.111,32.854z"/>
	<path fill="#001524" d="M60.147,32.869c-0.012-0.005-0.023-0.011-0.036-0.016l0,0l0.066,0.054
		C60.169,32.893,60.157,32.884,60.147,32.869z"/>
	<path fill="#001524" d="M60.141,32.861c-0.011-0.002-0.019-0.007-0.03-0.008l0,0c0.013,0.004,0.024,0.011,0.036,0.016
		C60.145,32.866,60.143,32.864,60.141,32.861z"/>
	<path fill="#001524" d="M60.163,32.876c-0.005-0.002-0.01-0.005-0.015-0.007c0.01,0.015,0.021,0.023,0.03,0.039
		C60.174,32.896,60.167,32.887,60.163,32.876z"/>
</g>
<g>
	<path fill="#92C355" d="M109.359,19.842c-2.455,0.096-4.803,0.665-7.121,1.404c-2.419,0.772-4.247,2.258-5.711,4.32
		c-0.547,0.772-0.853,1.5-0.404,2.346c0.437,0.824,1.324,0.718,2.042,0.662c1.872-0.144,3.772-0.234,5.589-0.636
		c4.036-0.896,7.906-2.363,11.479-4.376c2.009-1.13,3.623-1.139,5.449,0.168c0.377,0.27,0.863,0.38,1.299,0.564
		c0.771,0.201,1.598,0.427,1.121-0.898c-0.244-0.681-0.918-1.173-0.928-1.973c-0.115-4.829-3.016-8.39-5.764-11.93
		c-1.506-1.941-3.295-3.729-5.395-5.1c-0.24-0.156-0.445-0.365-0.686-0.521c-0.688-0.445-1.438-0.661-2.119-0.155
		c-0.619,0.461-0.469,1.224-0.275,1.855c0.584,1.93,1.164,3.871,2.123,5.662c1.088,2.037,2.232,4.043,3.666,5.867
		c0.582,0.294,0.633,0.963,0.99,1.416c0.197,0.263,0.438,0.498,0.508,0.83c-0.021,0.098-0.025,0.198-0.051,0.293
		c-0.07,0.078-0.125,0.16-0.191,0.229c-0.198,0.06-0.393,0.099-0.594,0.093c-0.211-0.042-0.416-0.075-0.623-0.114
		c-0.436-0.096-0.861-0.22-1.303-0.288C111.391,19.316,110.391,19.704,109.359,19.842z"/>
	<path fill="#92C355" d="M94.989,13.803c-1.247,0.009-2.511-0.18-3.725,0.229c-0.265-0.004-0.528-0.021-0.792-0.051
		c-0.157-0.038-0.299-0.008-0.425,0.089c-0.282,0.091-0.565,0.04-0.849-0.006c-0.163,0.098-0.326,0.196-0.488,0.294
		c-0.472,0.694-0.242,1.201,0.444,1.583c0.21,0.09,0.434,0.14,0.643,0.152c0.134,0.017,0.282-0.011,0.419-0.08
		c-0.087,0.121-0.211,0.195-0.392,0.223c-1.523-0.04-2.166,1.667-3.609,1.747c-1.729,1.39-3.667,2.528-4.963,4.429
		c-0.647,0.952-1.162,1.949-1.274,3.103c-0.181,1.845,0.398,2.518,2.253,2.299c2.356-0.276,4.422-1.44,6.419-2.612
		c3.564-2.09,6.753-4.72,9.343-7.935c0.962-1.194,1.909-1.211,3.106-1.178c1.194-0.67,0.889-1.394,0.02-2.137
		c-0.632-2.381-1.955-4.263-3.729-5.998c-2.691-2.63-5.497-5.021-8.895-6.625c-0.343-0.163-0.672-0.362-1.021-0.511
		c-0.724-0.308-1.53-0.515-2.114,0.077c-0.679,0.688-0.507,1.6-0.042,2.383c0.733,1.233,1.384,2.574,2.351,3.599
		c2.227,2.36,4.515,4.697,7.514,6.093C95.67,13.395,95.654,13.685,94.989,13.803z"/>
	<path fill="#92C254" d="M76.312,14.764c0.349,0.142,0.698,0.285,1.046,0.427c0.828,1.023-0.035,1.05-0.673,1.211
		c-1.81,1.18-3.98,1.456-5.944,2.271c-2.755,1.144-4.876,2.9-6.539,5.317c-0.039,0.706,0.356,1.027,0.986,1.138
		c1.74-0.161,2.407-1.852,3.714-2.634c0.072-0.043,0.163-0.058,0.243-0.086c-0.031,0.015-0.062,0.028-0.12,0.063
		c-0.674,0.792-1.827,1.437-0.629,2.687c0.594,0.049,1.101-0.173,1.591-0.46c2.115-1.693,5.23-1.53,7.051-3.765
		c0.369-0.279,0.956-0.481,1.072-0.848c0.738-2.321,2.813-2.72,4.68-3.437c0.66,0.166,1.082-0.73,1.787-0.368H84.54
		c0.438,0.001,0.818-0.304,1.273-0.211l0.02-0.001c0.429,0.158,0.824-0.231,1.254-0.048l-0.016,0.002
		c1.238-0.25,1.417-0.766,0.354-1.595l-0.005-0.001c-0.68-0.109-1.374,0.044-2.048-0.164l0.026,0.003
		c-1.292,0.751-2.333,0.425-3.162-0.828c-1.623-1.034-3.387-1.696-5.237-2.131c-2.245,0.965-4.386,0.626-6.448-0.699
		c-0.274,0.003-0.505,0.104-0.693,0.3c-0.37,0.91-0.427,1.786,0.344,2.565c0.881-0.026,1.617,0.532,2.452,0.696l-0.048-0.005
		c0.585-0.161,1.107,0.015,1.601,0.348l-0.021-0.006C74.9,14.546,75.635,14.34,76.312,14.764z"/>
	<path fill="#9AC762" d="M65.389,24.722c-0.562,0.04-0.887-0.323-1.187-0.732c-1.055,0.951-1.942,1.985-2.116,3.518
		c-0.222,1.958,0.792,2.875,2.693,2.255c2.047-0.667,4.067-1.509,5.667-2.947c1.936-1.741,3.816-3.529,6-4.963
		c0.279-0.183,0.399-0.608,0.594-0.921c-1.428,0.83-2.796,1.721-4.586,1.718c-1.122-0.001-2.108,0.579-2.836,1.487
		c-0.543,1.387-1.712,2.149-2.896,2.894c-0.272,0.248-0.209-0.578-0.117-0.204c0.013,0.054,0.092,0.059,0.2-0.03
		c0.593-0.488,1.918-0.387,1.387-1.781c-0.041-1.268,1.305-1.792,1.488-2.94C67.649,21.986,67.328,24.664,65.389,24.722z"/>
	<path fill="#97C55C" d="M70.297,13.467c-0.091-0.846-0.181-1.693-0.272-2.54c-0.234-0.062-0.477-0.09-0.665-0.195
		c0.036,0.001-0.016,0.153-0.016,0.153s0.134-0.085,0.166-0.088c0.192,0.041,0.353,0.085,0.514,0.13
		c1.138,0.167,1.772,1.228,2.809,1.701c1.094,0.498,1.917-1.016,2.979,0.163c0.372,0.413,0.388-1.277,1.188-1.483
		c-3.493-1.456-7.061-2.583-10.844-2.714c-1.108-0.038-2.256-0.241-3.208,0.551c-0.114,0.425,0.049,0.765,0.336,1.069
		c0.292,0.265,0.623,0.472,0.961,0.665c0.954,0.633,1.974,1.593,3.048,1.378c1.585-0.317,0.251,1.133,0.923,1.215l0.009-0.004
		c0.575-0.142,1.088,0.059,1.59,0.33l-0.004-0.002c0.123,0.009,0.246,0.016,0.371,0.026C70.22,13.704,70.259,13.585,70.297,13.467z"
		/>
	<path fill="#A9CF78" d="M127.014,27.867c0.398,0.255,0.803,0.504,1.217,0.749c1.483,0.876,3.014,1.768,4.115,3.123
		c-0.096-0.117-0.172-0.601-0.246-0.763c-0.176-0.387-0.43-0.759-0.668-1.109c-0.47-0.685-1.021-1.307-1.646-1.855
		c-1.002-0.878-2.123-1.605-3.269-2.28c-1.86-1.098-3.369-2.378-4.343-4.309c-0.291,0.734,0.209,1.256,0.524,1.823
		c0.49,0.88-0.234,0.875-0.719,1.048c0.252-0.09,1.92,1.41,2.191,1.611C125.115,26.596,126.045,27.248,127.014,27.867z"/>
	<path fill="#A6CE74" d="M63.615,10.074c-0.222-0.309-0.445-0.618-0.668-0.929c-1.701,1.146-1.763,2.057-0.103,2.894
		c1.686,0.85,3.524,1.196,5.372,1.433c-0.08-0.605,0.784-1.582-0.6-1.679c-1.28-0.09-2.139-1.049-3.234-1.505
		c0,0-0.2,0.147-0.2,0.146c-0.177,0.049-0.331,0.006-0.461-0.13L63.615,10.074z"/>
	<path fill="#A7CE76" d="M115.951,19.836c0.383-0.854-0.061-1.311-0.797-1.625c-0.402,0.338-0.877,0.347-1.369,0.264
		c-2.023-0.799-4.049-1.599-6.071-2.397c-0.907,0.555-0.493,1.018,0.138,1.465c0.681,0.489,1.611,0.402,2.219,1.052
		c0.557,0.763,1.34,0.987,2.207,1c0.738-0.055,1.27,0.555,1.951,0.671l-0.023-0.013c0.445,0.067,0.939,0.558,1.303-0.12
		l-0.013,0.023C115.533,19.884,115.68,19.77,115.951,19.836z"/>
	<path fill="#A7CE76" d="M107.852,17.542c-0.231-0.475-0.435-0.953-0.138-1.465c-2.226-0.611-4.468-1.164-6.593-2.124
		c0.322,0.724,0.488,1.441-0.02,2.136C103.352,16.574,105.602,17.058,107.852,17.542z"/>
	<path fill="#9EC968" d="M87.879,16.271c0.571-0.176,1.142-0.353,1.713-0.529c-0.61-0.26-0.867-0.745-0.881-1.383
		c-0.429,0.023-0.857,0.045-1.285,0.068c0.384,0.658,0.226,1.179-0.354,1.595C87.341,16.104,87.61,16.188,87.879,16.271z"/>
	<path fill="#9EC968" d="M82.236,13.438c1.252,1.955,1.252,1.955,3.162,0.828C84.233,14.471,83.236,13.95,82.236,13.438z"/>
	<path fill="#BBD995" d="M113.784,18.475c0.632,0.735,1.161,0.996,1.37-0.264c-0.438-0.422-0.721-1.05-1.428-1.108
		C113.857,17.559,114.202,18.01,113.784,18.475z"/>
	<path fill="#C7E0A8" d="M94.989,13.803c0.163,0.091,0.317,0.221,0.491,0.265c0.436,0.108,1.025,0.335,1.17-0.258
		c0.151-0.618-0.486-0.676-0.913-0.799c-0.176-0.05-0.369-0.028-0.553-0.039C95.119,13.249,95.054,13.526,94.989,13.803z"/>
	<path fill="#D0E5B6" d="M76.685,16.402c0.353-0.039,0.734-0.007,1.048-0.137c0.305-0.125,0.8-0.489,0.761-0.622
		c-0.16-0.542-0.677-0.5-1.136-0.453C77.435,15.772,76.985,16.043,76.685,16.402z"/>
	<path fill="#97C55C" d="M72.655,14.17c-0.703-0.546-1.371-1.219-2.358-0.703l-0.004,0.018c-0.044,0.173-0.014,0.3,0.088,0.38
		c0.102,0.08,0.171,0.109,0.208,0.086C71.271,14.099,71.933,14.523,72.655,14.17z"/>
	<path fill="#9EC968" d="M85.372,14.262c0.656,0.558,1.339,0.615,2.048,0.164C86.757,13.998,86.078,13.873,85.372,14.262z"/>
	<path fill="#97C55C" d="M76.312,14.764c-0.647-0.742-1.362-0.754-2.125-0.257C74.862,14.949,75.586,14.86,76.312,14.764z"/>
	<path fill="#9EC968" d="M84.578,16.28c-0.729-0.474-1.247-0.002-1.788,0.368C83.457,16.842,84.029,16.613,84.578,16.28z"/>
	<path fill="#97C55C" d="M74.208,14.513c-0.423-0.702-0.956-0.826-1.601-0.348C73.093,14.538,73.632,14.623,74.208,14.513z"/>
	<path fill="#A6CE74" d="M69.814,13.798c-0.428-0.676-0.96-0.777-1.59-0.33C68.703,13.869,69.248,13.889,69.814,13.798z"/>
	<path fill="#9EC968" d="M85.813,16.069c-0.486-0.261-0.895-0.106-1.273,0.211C85.021,16.512,85.424,16.325,85.813,16.069z"/>
	<path fill="#9EC968" d="M87.087,16.02c-0.437-0.301-0.85-0.195-1.254,0.048C86.268,16.316,86.683,16.265,87.087,16.02z"/>
	<path fill="#9EC968" d="M89.199,14.064c0.286,0.165,0.568,0.169,0.848,0.007C89.762,13.918,89.479,13.904,89.199,14.064z"/>
	<path fill="#9EC968" d="M90.473,13.981c0.264,0.017,0.527,0.034,0.791,0.052C91.006,13.863,90.743,13.815,90.473,13.981z"/>
	<path fill="#A6CE74" d="M70.589,13.952c-0.096-0.158-0.195-0.313-0.296-0.467c-0.162,0.104-0.322,0.208-0.483,0.311
		C70.038,14.032,70.296,14.097,70.589,13.952z"/>
	<path fill="#E5F1D7" d="M113.838,12.306c-1.201-1.931-2.402-3.863-3.604-5.794c0.537,2.308,1.932,4.143,3.214,6.039
		C113.664,12.608,113.791,12.521,113.838,12.306z"/>
	<path fill="#9CC864" d="M116.857,13.863c-0.465-0.894-1.063-1.575-2.178-1.404c-0.4,0.555-0.314,1.108,0.055,1.658
		c0.371,0.492,0.561,1.29,1.398,1.074C116.768,15.027,116.838,14.435,116.857,13.863z"/>
	<path fill="#AED381" d="M116.857,13.863c-0.988,1.265-1.008,1.263-2.065-0.142c-0.282-0.091-0.427,0.021-0.454,0.309
		c0.143,0.235,0.26,0.491,0.434,0.701c0.428,0.521,0.609,1.627,1.502,1.21C116.979,15.613,117.389,14.784,116.857,13.863z"/>
	<path fill="#DBEBC7" d="M103.627,23.396c-1.053,0.452-2.105,0.903-3.159,1.354c-0.091,0.217-0.073,0.362,0.054,0.435
		c0.125,0.072,0.213,0.091,0.271,0.057c0.959-0.08,1.816-0.442,2.645-0.9C104.038,24.153,104.016,23.817,103.627,23.396z"/>
	<path fill="#E4F0D5" d="M100.791,25.242c-0.107-0.164-0.216-0.328-0.323-0.492c-0.789,0.287-1.476,0.709-2.093,1.505
		C99.792,27.048,100.302,26.168,100.791,25.242z"/>
	<path fill="#E9F3DD" d="M114.338,14.03c0.146-0.108,0.299-0.211,0.454-0.309c-0.038-0.421-0.075-0.842-0.112-1.263
		c-0.281-0.051-0.561-0.103-0.842-0.153c-0.13,0.082-0.26,0.164-0.39,0.245C113.057,13.457,113.711,13.734,114.338,14.03z"/>
	<path fill="#BBD995" d="M112.359,19.345c0.123,0.21,0.246,0.42,0.371,0.631c0.42,0.591,0.934,0.596,1.498,0.288
		C113.813,19.511,113.16,19.267,112.359,19.345z"/>
	<path fill="#C6DFA6" d="M103.627,23.396c-0.064,0.314-0.129,0.629-0.193,0.945c0.779,0.153,1.379-0.086,1.797-0.785
		C104.688,23.238,104.156,23.334,103.627,23.396z"/>
	<path fill="#BBD995" d="M115.506,20.132c-0.434,0.04-0.869,0.08-1.303,0.12C114.707,20.825,115.21,21.383,115.506,20.132z"/>
	<path fill="#BBD995" d="M115.951,19.836c-0.396-0.248-0.52-0.098-0.458,0.319C115.654,20.061,115.807,19.953,115.951,19.836z"/>
	<polygon fill="#CAE1AB" points="118.357,18.025 118.506,17.988 118.418,17.884 	"/>
	<path fill="#D8E9C2" d="M94.124,8.208c-1.089-1.537-1.089-1.537-3.52-2.824c0.443,1.727,1.743,2.44,2.996,3.196
		C93.959,8.718,94.134,8.594,94.124,8.208z"/>
	<path fill="#DAEAC5" d="M94.124,8.208c-0.175,0.124-0.35,0.247-0.524,0.372c0.948,1.157,1.989,2.188,3.748,2.917
		C96.576,9.731,95.333,8.986,94.124,8.208z"/>
	<path fill="#9EC968" d="M89.626,15.741c0.316,0.244,0.632,0.488,0.947,0.732c0.265-0.029,0.532-0.063,0.799-0.086
		c0.287-0.024,0.537-0.14,0.562-0.443c0.027-0.304-0.187-0.493-0.484-0.504C90.822,15.415,90.194,15.421,89.626,15.741z"/>
	<path fill="#A0CA6B" d="M90.574,20.221c0.169,0.048,0.426,0.206,0.64,0.164c0.35-0.068,0.315-0.396,0.115-0.594
		c-0.161-0.159-0.456-0.313-0.647-0.273C90.391,19.58,90.338,19.863,90.574,20.221z"/>
	<path fill="#AED27F" d="M85.837,20.104c0.136,0.09,0.277,0.256,0.405,0.249c0.109-0.007,0.201-0.211,0.301-0.329
		c-0.143-0.083-0.278-0.209-0.43-0.24C85.891,19.737,85.793,19.877,85.837,20.104z"/>
	<path fill="#AED280" d="M85.583,23.241c-0.118,0.189-0.081,0.36,0.135,0.417c0.15,0.041,0.322-0.011,0.483-0.02
		c-0.048-0.152-0.056-0.375-0.156-0.436C85.937,23.138,85.741,23.222,85.583,23.241z"/>
	<path fill="#A7CF77" d="M98.391,14.672c-0.069,0.012-0.165,0-0.204,0.041c-0.147,0.159-0.104,0.273,0.108,0.277
		c0.053,0.001,0.128-0.082,0.154-0.144C98.466,14.805,98.413,14.731,98.391,14.672z"/>
	<path fill="#D8E9C2" d="M65.389,24.722c1.025,0.469,1.61-0.276,2.162-0.859c0.647-0.686,1.252-1.391,2.128-1.789
		c0.041-0.227,0.603-0.79-0.036-0.614C67.838,21.958,66.732,23.527,65.389,24.722z"/>
	<path fill="#A8CF77" d="M68.19,25.015c-0.039,1.249-1.493,1.203-1.919,2.14c2.695-0.961,2.779-1.037,3.346-3.018
		C69.142,24.429,68.666,24.722,68.19,25.015z"/>
	<path fill="#BFDC9C" d="M129.129,29.106c0.014-0.029,0.021-0.057,0.014-0.077c-0.187-0.463-0.59-0.43-0.979-0.378
		C128.484,28.804,128.807,28.958,129.129,29.106z"/>
	<path fill="#B1D485" d="M63.568,27.954c0.189,0.133,0.355,0.101,0.409-0.12c0.038-0.154-0.009-0.33-0.017-0.496
		c-0.15,0.042-0.371,0.041-0.428,0.139C63.466,27.589,63.548,27.792,63.568,27.954z"/>
	<path fill="#9FCA6A" d="M69.242,10.731c-0.463-0.603-0.96-1.109-1.991-0.603c0.645,0.625,1.305,0.652,1.99,0.606L69.242,10.731z"/>
	<path fill="#A6CE74" d="M64.382,10.289c-0.256-0.071-0.512-0.142-0.768-0.213l-0.025,0.101c0.084,0.552,0.36,0.55,0.731,0.277
		L64.382,10.289z"/>
	<path fill="#9FCA6A" d="M69.241,10.734c0.262,0.064,0.523,0.128,0.784,0.193c-0.26-0.066-0.521-0.131-0.783-0.196L69.241,10.734z"
		/>
	<path fill="#EBF4E1" d="M64.32,10.453c-0.243-0.092-0.486-0.186-0.731-0.277c-0.271,0.313-0.275,0.646,0.132,0.799
		C64.12,11.126,64.344,10.891,64.32,10.453z"/>
</g>
<g>
	<path fill="none" d="M8.877,87.029c-0.226,0.068-0.452,0.14-0.679,0.21C8.481,87.232,8.729,87.188,8.877,87.029z"/>
	<path fill="none" d="M5.924,87.938H5.921H5.924c0.067,0.002,0.138,0.002,0.208,0.004c0-0.021-0.004-0.045-0.004-0.064
		C6.058,87.896,5.992,87.917,5.924,87.938z"/>
	<path fill="#62A043" d="M67.715,86.968c-16.902,0.015-33.808,0.05-50.712,0.08c-1.491,0.972-3.784-0.166-5.219,0.958
		c0.604,0.083,1.207,0.167,1.81,0.25c0.501-0.005,0.998,0.008,1.438,0.198c0.858-0.033,1.717-0.095,2.576-0.093
		c16.657,0.046,33.316,0.113,49.974,0.121c1.029,0.002,2.907,0.635,3.006-0.633C70.689,86.611,68.838,86.968,67.715,86.968z"/>
	<path fill="#8EBA77" d="M8.198,87.239c-0.69,0.211-1.38,0.424-2.072,0.636c0,0.021,0.004,0.044,0.004,0.064
		c1.88,0.021,3.762,0.043,5.641,0.064c-0.046-0.023-0.092-0.047-0.136-0.074c1.361-1.555,3.719-0.174,5.368-0.883
		c-2.708-0.007-5.419-0.013-8.126-0.018l0,0C8.729,87.188,8.481,87.232,8.198,87.239z"/>
	<path fill="#8EBA77" d="M11.635,87.932c0.043,0.026,0.089,0.051,0.136,0.074c0.004,0,0.01,0,0.013,0
		c1.436-1.124,3.729,0.014,5.219-0.958C15.354,87.757,12.998,86.376,11.635,87.932z"/>
	<path fill="#C5DCB9" d="M4.417,88.223c-0.25-0.054-0.5-0.111-0.75-0.177C3.919,88.123,4.169,88.186,4.417,88.223z"/>
	<path fill="#C5DCB9" d="M5.924,87.938c0.067-0.021,0.135-0.041,0.202-0.063c-0.026-1.011,1.205-0.621,2.072-0.636
		c0.227-0.07,0.453-0.142,0.679-0.21l0,0c-1.723-0.016-3.446-0.03-5.167-0.047c-0.9,0.937-2.848,0.002-3.709,1.004v0.003
		c1.221,0.018,2.445,0.036,3.666,0.057c0.754-0.037,1.505-0.071,2.255-0.108H5.924z"/>
	<path fill="#C5DCB9" d="M6.126,87.875c0.691-0.212,1.382-0.425,2.072-0.636C7.331,87.254,6.1,86.864,6.126,87.875z"/>
</g>
<g>
	<path fill="none" d="M194.261,87.529c0.005,0.059,0.003,0.106,0,0.158c0.061-0.047,0.116-0.097,0.166-0.156l0,0
		C194.371,87.531,194.316,87.529,194.261,87.529z"/>
	<path fill="#62A042" d="M188.971,87.466c-0.564-0.084-1.132-0.167-1.695-0.25c-0.471,0.005-0.934-0.008-1.345-0.198
		c-1.15,0.023-2.303,0.069-3.456,0.066c-15.383-0.038-30.765-0.093-46.15-0.104c-0.883-0.002-2.413-0.484-2.489,0.705
		c-0.078,1.246,1.478,0.811,2.366,0.811c15.961-0.004,31.924-0.041,47.885-0.072C185.482,87.452,187.628,88.588,188.971,87.466z"/>
	<path fill="#8EBA77" d="M194.261,87.688c0.003-0.049,0.005-0.1,0-0.155c-1.759-0.021-3.518-0.043-5.276-0.064
		c0.042,0.023,0.084,0.048,0.127,0.075c-1.273,1.557-3.481,0.173-5.025,0.882c2.537,0.007,5.072,0.015,7.606,0.021
		c0.003-0.004,0.009-0.004,0.012-0.008C192.342,87.828,193.577,88.215,194.261,87.688z"/>
	<path fill="#8EBA77" d="M189.111,87.541c-0.042-0.027-0.085-0.052-0.127-0.075c-0.006,0-0.008,0-0.016,0
		c-1.341,1.122-3.489-0.014-4.885,0.957C185.63,87.714,187.838,89.098,189.111,87.541z"/>
	<path fill="#C5DCB9" d="M200,87.484L200,87.484c-1.133-0.021-2.267-0.041-3.396-0.063l0,0c-0.682,0.521-1.415,0.485-2.177,0.105
		c-0.048,0.063-0.103,0.111-0.163,0.156c-0.068,1.187-1.998,0.147-2.557,0.746c-0.003,0.004-0.01,0.008-0.012,0.01
		c1.611,0.016,3.226,0.029,4.837,0.045C197.371,87.552,199.193,88.484,200,87.484z"/>
	<path fill="#C5DCB9" d="M194.261,87.688c-0.687,0.527-1.919,0.143-2.557,0.746C192.263,87.835,194.195,88.872,194.261,87.688z"/>
	<path fill="#C5DCB9" d="M196.604,87.424c-0.726,0.036-1.451,0.072-2.177,0.107C195.188,87.909,195.922,87.943,196.604,87.424z"/>
</g>
<g>
	<path fill="#001524" d="M79.387,88.354c-0.094,0.093-0.38,0.14-0.86,0.14c-0.333,0.066-0.727,0.014-1.18-0.16l-0.42-0.14l-0.62-0.3
		c-0.054,0-0.087,0.003-0.1,0.01c-0.014,0.007-0.047-0.01-0.1-0.05c-0.08-0.066-0.173-0.12-0.28-0.16
		c-0.267-0.187-0.454-0.353-0.56-0.5c-0.427-0.68-0.64-1.246-0.64-1.7c0-0.053,0.066-0.152,0.2-0.3c0.267-0.32,0.6-0.479,1-0.479
		c0.16,0.013,0.287,0.066,0.38,0.159l0.66,0.86c0.106,0.107,0.227,0.214,0.36,0.32l0.26,0.279l0.4,0.341
		c0.053,0.026,0.106,0.04,0.16,0.04c0.053,0.026,0.2,0.06,0.44,0.1c0.267-0.066,0.493-0.14,0.68-0.22
		c0.12-0.12,0.227-0.214,0.32-0.28l0.28-0.32c0.026-0.026,0.073-0.133,0.14-0.319c0-0.174,0.003-0.29,0.01-0.351
		c0.006-0.06-0.017-0.223-0.07-0.49c-0.014-0.039-0.107-0.146-0.28-0.319c-0.08-0.16-0.193-0.333-0.34-0.521
		c-0.08-0.08-0.467-0.293-1.16-0.64l-0.38-0.22l-0.36-0.32c-0.173-0.053-0.42-0.233-0.74-0.54c-0.133-0.093-0.233-0.167-0.3-0.22
		c-0.08-0.026-0.3-0.253-0.66-0.681c0-0.026-0.113-0.279-0.34-0.76l-0.18-0.78l0.08-0.52c-0.08-0.347-0.107-0.606-0.08-0.78
		c0.053-0.08,0.12-0.239,0.2-0.479c-0.04-0.2,0.14-0.594,0.54-1.181c0-0.079,0.293-0.399,0.88-0.96l0.68-0.359l0.32-0.141
		c0.12-0.013,0.283-0.033,0.49-0.06s0.517-0.026,0.93,0c0.413,0.026,0.673,0.08,0.78,0.16c0.093,0.04,0.36,0.22,0.8,0.54
		c0.586,0.52,0.907,0.986,0.96,1.399c0.227,0.681,0.24,1.407,0.04,2.181c0,0.053-0.187,0.16-0.56,0.319l-0.5-0.02
		c-0.427-0.054-0.833-0.273-1.22-0.66c-0.106-0.066-0.187-0.253-0.24-0.56c-0.014-0.32-0.08-0.514-0.2-0.58
		c-0.013-0.014-0.067-0.134-0.16-0.36c-0.227-0.293-0.377-0.44-0.45-0.44s-0.157,0.021-0.25,0.061c-0.48,0.387-0.733,0.82-0.76,1.3
		c-0.094,0.387,0.026,0.86,0.36,1.42c0.146,0.214,0.24,0.32,0.28,0.32c0.08,0.134,0.233,0.3,0.46,0.5l0.28,0.3l0.84,0.62l0.34,0.34
		l0.38,0.24c0.213,0.094,0.42,0.22,0.62,0.38c0.267,0.2,0.593,0.573,0.98,1.12c0.08,0.12,0.187,0.479,0.32,1.08v0.78l-0.1,0.46
		c-0.067,0.066-0.14,0.199-0.22,0.399c0,0.014-0.074,0.193-0.22,0.54c-0.04,0.067-0.2,0.207-0.48,0.42
		c-0.4,0.32-0.847,0.561-1.34,0.72C79.78,88.361,79.613,88.367,79.387,88.354z"/>
	<path fill="#001524" d="M88.887,81.095c0.013-0.32,0.017-0.514,0.01-0.58s-0.01-0.113-0.01-0.141l0.06-0.54
		c0-0.199-0.014-0.353-0.04-0.46c0.013-0.053,0.02-0.159,0.02-0.319c0.026-0.054,0.04-0.13,0.04-0.23c0-0.1,0.033-0.482,0.1-1.149
		c-0.293,0.066-0.487,0.113-0.58,0.14l-0.8,0.04c-0.36,0.106-0.62,0.16-0.78,0.16c-0.374,0.106-0.594,0.153-0.66,0.14
		c-0.333,0.027-0.553,0-0.66-0.08c-0.147-0.173-0.22-0.42-0.22-0.74c-0.054-0.279-0.06-0.466-0.02-0.56
		c0.146-0.2,0.243-0.316,0.29-0.35c0.046-0.033,0.163-0.07,0.35-0.11c0.187-0.04,0.367-0.133,0.54-0.28l1.08-0.439
		c0.626-0.12,1.02-0.221,1.18-0.3c0.066,0,0.213-0.021,0.44-0.061c0.227-0.04,0.367-0.057,0.42-0.05s0.146-0.03,0.28-0.11l1.28-0.12
		c0.013,0.014,0.086,0.027,0.22,0.04c0.2,0.027,0.446-0.006,0.739-0.1c0.214,0.026,0.394,0.033,0.541,0.02
		c0.066,0.027,0.266-0.013,0.6-0.119c0.08,0,0.153-0.011,0.22-0.03c0.066-0.021,0.22-0.057,0.46-0.11
		c0.146,0,0.267,0.033,0.36,0.101c0.066-0.014,0.143,0.026,0.229,0.119c0.087,0.094,0.177,0.221,0.271,0.381
		c0.213,0.319,0.34,0.507,0.38,0.56c0.173,0.28,0.286,0.566,0.34,0.86c0.054,0.106,0.066,0.18,0.04,0.22s-0.12,0.073-0.28,0.1
		c-0.066-0.053-0.146-0.076-0.239-0.069c-0.094,0.007-0.38,0.043-0.86,0.109l-0.34-0.02c-0.32,0.08-0.727,0.12-1.22,0.12l-1.24,0.04
		l-0.12,0.06c-0.08,0.987-0.107,1.627-0.08,1.92c0.066,0.507,0.086,0.773,0.06,0.8v0.4c0.133,2.4,0.21,3.646,0.23,3.74
		c0.021,0.093,0.03,0.279,0.03,0.56l0.14,1.62c0.08,0.094,0.126,0.247,0.14,0.46c0.014,0.28-0.06,0.447-0.22,0.5
		c-0.28,0.094-0.507,0.177-0.68,0.25c-0.174,0.073-0.447,0.084-0.82,0.03c0-0.04-0.153-0.106-0.46-0.2c0-0.013-0.087-0.113-0.26-0.3
		c-0.054-0.066-0.08-0.16-0.08-0.28c-0.08-0.32-0.12-0.746-0.12-1.28c-0.08-0.373-0.093-0.652-0.04-0.84
		c-0.013-0.013-0.06-0.24-0.14-0.68v-0.74c0-0.106-0.033-0.213-0.1-0.32l-0.02-0.619V81.095z"/>
	<path fill="#001524" d="M98.126,81.814l0.14-1.48c0-0.079,0.03-0.199,0.091-0.359c0.06-0.16,0.096-0.26,0.109-0.3
		c0-0.027,0.014-0.073,0.04-0.141c0-0.359,0.101-0.673,0.3-0.939c0.307-0.707,0.54-1.233,0.7-1.58s0.333-0.634,0.521-0.86
		c0.013-0.066,0.152-0.173,0.42-0.32c0.546-0.293,1.06-0.439,1.54-0.439c0.479,0,0.939,0.073,1.38,0.22
		c0.146,0.027,0.343,0.127,0.59,0.3c0.246,0.174,0.39,0.268,0.43,0.28c0.227,0.134,0.464,0.417,0.71,0.851
		c0.247,0.433,0.38,0.75,0.4,0.949c0.02,0.2,0.1,0.518,0.24,0.95c0.14,0.434,0.21,0.754,0.21,0.96c0,0.207,0.036,0.517,0.109,0.93
		c0.073,0.414,0.104,0.747,0.091,1c-0.08,1.881-0.32,3.24-0.721,4.08c-0.08,0.587-0.233,0.96-0.46,1.12l-0.04,0.28
		c-0.014,0.16-0.09,0.34-0.229,0.54c-0.141,0.2-0.317,0.354-0.53,0.46c-0.04,0.04-0.307,0.1-0.8,0.18
		c-0.707,0.134-1.174,0.2-1.4,0.2c-0.293,0.093-0.663,0.077-1.109-0.05c-0.447-0.127-0.704-0.193-0.771-0.2s-0.21-0.08-0.43-0.22
		c-0.221-0.141-0.363-0.25-0.431-0.33c-0.213-0.16-0.34-0.287-0.38-0.38l-0.279-0.561c-0.174-0.173-0.294-0.423-0.36-0.75
		c-0.067-0.326-0.134-0.536-0.2-0.63c-0.066-0.146-0.127-0.3-0.18-0.46c0.013-0.093,0.02-0.26,0.02-0.5v-0.2
		c-0.053-0.199-0.04-0.393,0.04-0.58c0.014-0.093,0.023-0.21,0.03-0.35s0.023-0.343,0.05-0.61v-0.26
		C98.086,82.215,98.139,81.948,98.126,81.814z M100.406,83.274l0.06,1.8c0.213,0.76,0.526,1.294,0.94,1.601
		c0.066,0.066,0.22,0.14,0.46,0.22l0.5,0.12c0.066,0,0.14-0.026,0.22-0.08c0.093-0.026,0.16-0.061,0.2-0.101
		c0.093-0.119,0.187-0.227,0.28-0.319c0.093-0.094,0.133-0.141,0.119-0.141c0.054-0.053,0.073-0.14,0.061-0.26
		c0.04-0.04,0.093-0.126,0.16-0.26c0.146-0.747,0.293-1.227,0.439-1.44c0.054-0.586,0.08-0.96,0.08-1.119
		c0-0.561-0.146-1.247-0.439-2.061c-0.16-0.187-0.24-0.78-0.24-1.78c-0.08-0.199-0.127-0.383-0.14-0.55
		c-0.014-0.166-0.058-0.347-0.131-0.54s-0.13-0.323-0.17-0.39s-0.063-0.13-0.069-0.19c-0.007-0.06-0.037-0.137-0.09-0.229
		c-0.214-0.32-0.54-0.146-0.98,0.52l-0.34,0.601c0,0.026-0.067,0.273-0.2,0.739c-0.214,0.747-0.316,1.164-0.31,1.25
		c0.006,0.087-0.07,0.364-0.23,0.83c-0.014,0.04-0.017,0.134-0.01,0.28s-0.021,0.35-0.08,0.61
		C100.436,82.645,100.406,82.941,100.406,83.274z"/>
	<path fill="#001524" d="M110.526,83.074c0.04-0.12,0.106-0.546,0.2-1.279l0.38-2.24c0.026-0.054,0.06-0.193,0.1-0.42
		c0-0.146,0.017-0.297,0.05-0.45s0.051-0.423,0.051-0.811l-0.24-0.159l-0.38-0.181c-0.16-0.08-0.327-0.206-0.5-0.38
		c-0.067-0.04-0.087-0.143-0.061-0.31s0.127-0.297,0.3-0.391c0.04,0,0.181-0.046,0.42-0.14c0.08,0,0.214-0.06,0.4-0.18
		c0.04,0,0.16-0.061,0.36-0.181l0.88-0.319c0.066,0,0.177-0.033,0.33-0.101c0.153-0.066,0.31-0.106,0.47-0.12l0.78-0.06
		c0.399-0.066,0.746-0.047,1.04,0.06c0.2,0,0.387,0.04,0.56,0.12c0.12,0,0.3,0.047,0.54,0.141c0.173,0.026,0.354,0.1,0.54,0.22
		c0.093,0,0.18,0.026,0.26,0.08c0.16,0.12,0.327,0.22,0.5,0.3l0.48,0.42c0.267,0.214,0.513,0.507,0.74,0.88
		c0.253,0.268,0.246,0.667-0.021,1.2c-0.014,0.08-0.066,0.207-0.16,0.38c-0.399,0.813-1.133,1.62-2.2,2.42l-0.6,0.24l-1,0.58
		c0.12,0.187,0.366,0.54,0.74,1.06l1.6,2.061l0.221,0.38l0.52,0.62c0.04,0.093,0.153,0.207,0.34,0.34l0.32,0.34
		c0.293,0.254,0.41,0.533,0.35,0.84c-0.06,0.307-0.25,0.46-0.569,0.46l-0.48-0.06l-0.96-0.3l-0.32-0.32
		c-0.293-0.146-0.517-0.303-0.67-0.47s-0.37-0.384-0.649-0.65c-0.24-0.16-0.567-0.486-0.98-0.979c0-0.014-0.04-0.12-0.12-0.32
		c-0.16-0.133-0.3-0.434-0.42-0.9c-0.014-0.013-0.033-0.04-0.06-0.08c-0.027-0.04-0.07-0.103-0.13-0.189
		c-0.061-0.087-0.104-0.163-0.131-0.23c-0.079-0.359-0.22-0.673-0.42-0.939h-0.08c0,0.08-0.026,0.193-0.079,0.34v0.4l-0.16,1.159
		l-0.28,1.44c0,0.04-0.017,0.127-0.05,0.26c-0.033,0.134-0.047,0.21-0.04,0.23c0.007,0.02,0.01,0.093,0.01,0.22
		s-0.014,0.229-0.04,0.31c0,0.107-0.037,0.28-0.11,0.521s-0.18,0.396-0.319,0.47c-0.141,0.073-0.397,0.077-0.771,0.01
		c-0.133-0.053-0.313-0.246-0.54-0.58c-0.106-0.039-0.233-0.26-0.38-0.659c0.026-0.24,0.04-0.387,0.04-0.44
		c0-0.053-0.007-0.127-0.02-0.22c0.013-0.24,0.026-0.44,0.04-0.601v-0.14c0-0.026,0.006-0.063,0.02-0.11
		c0.014-0.046,0.03-0.119,0.05-0.22c0.021-0.1,0.044-0.183,0.07-0.25c0.026-0.106,0.04-0.26,0.04-0.46s0.047-0.393,0.14-0.58
		C110.466,83.981,110.486,83.621,110.526,83.074z M113.406,78.854c0,0.267-0.094,1-0.28,2.2l-0.06,0.279
		c0.053-0.026,0.16-0.119,0.319-0.279c0.254-0.227,0.653-0.5,1.2-0.82l0.3-0.22l0.62-0.26l0.681-0.421
		c-0.027-0.026,0.006-0.093,0.1-0.199c0.267-0.453,0.427-0.833,0.48-1.141c0-0.187-0.023-0.323-0.07-0.41
		c-0.047-0.086-0.21-0.143-0.49-0.17c-0.04-0.04-0.167-0.08-0.38-0.119c-0.533-0.04-0.98,0.007-1.34,0.14h-0.16l-0.3,0.08h-0.34
		l-0.101,0.54c0,0.026-0.033,0.16-0.1,0.399C113.486,78.562,113.459,78.694,113.406,78.854z"/>
	<path fill="#001524" d="M126.246,75.435l0.359-0.16c0.04,0,0.101-0.02,0.181-0.06c0.293-0.134,0.673-0.233,1.14-0.301
		c0.08-0.106,0.233-0.072,0.46,0.101c0.106,0.054,0.177,0.08,0.21,0.08s0.094,0.05,0.181,0.149c0.086,0.101,0.143,0.184,0.17,0.25
		l0.22,0.181c0.16,0.093,0.253,0.17,0.28,0.229c0.026,0.061,0.029,0.167,0.01,0.32c-0.021,0.153-0.08,0.293-0.18,0.42
		c-0.101,0.127-0.204,0.21-0.311,0.25c-0.453,0.174-0.76,0.26-0.92,0.26s-0.354,0.067-0.58,0.2c-0.227,0.134-0.413,0.214-0.56,0.24
		c-0.147,0.026-0.257,0.06-0.33,0.1s-0.177,0.107-0.311,0.2c-0.319,0.187-0.633,0.307-0.939,0.36c0.026,0,0.013,0.066-0.04,0.199
		c-0.054,0.134-0.101,0.311-0.141,0.53s-0.113,0.477-0.22,0.771l-0.24,1.079c-0.053,0.24-0.06,0.36-0.02,0.36s0.073-0.026,0.1-0.08
		c0.733-0.293,1.17-0.517,1.311-0.67c0.14-0.153,0.35-0.217,0.63-0.189l0.24-0.061c0.04-0.04,0.126-0.06,0.26-0.06
		c0.24-0.066,0.553,0.093,0.939,0.479l-0.06,0.22c-0.066,0.134-0.174,0.28-0.32,0.44s-0.263,0.26-0.35,0.3s-0.15,0.07-0.19,0.09
		c-0.04,0.021-0.066,0.03-0.08,0.03h-0.04c-0.079,0.08-0.166,0.147-0.26,0.2c-0.106,0.106-0.213,0.187-0.319,0.24
		c-0.107,0.053-0.207,0.109-0.301,0.17c-0.093,0.06-0.163,0.104-0.21,0.13s-0.104,0.06-0.17,0.1s-0.144,0.087-0.229,0.141
		c-0.087,0.053-0.144,0.08-0.17,0.08c-0.027,0-0.174,0.119-0.44,0.359c-0.08,0-0.193-0.036-0.34-0.109s-0.254-0.15-0.32-0.23
		c-0.08,0-0.093,0.18-0.04,0.54c0,0.066-0.026,0.233-0.08,0.5c-0.053,0.493-0.06,0.987-0.02,1.48s0.1,0.793,0.18,0.899
		c0.08,0.107,0.167,0.16,0.26,0.16c0.2-0.04,0.354-0.097,0.46-0.17c0.107-0.073,0.207-0.116,0.301-0.13
		c0.093-0.014,0.196-0.066,0.31-0.16c0.113-0.093,0.2-0.14,0.26-0.14c0.061,0,0.25-0.16,0.57-0.48c0.04-0.066,0.13-0.137,0.271-0.21
		c0.14-0.073,0.21-0.13,0.21-0.17c0.026-0.053,0.123-0.13,0.29-0.23c0.166-0.1,0.366-0.166,0.6-0.199s0.41-0.017,0.53,0.05
		c0.213,0.12,0.473,0.333,0.779,0.64c0.067,0.107,0.063,0.337-0.01,0.69s-0.189,0.609-0.35,0.77l-0.181,0.181
		c-0.227,0.267-0.56,0.547-1,0.84c-0.347,0.187-0.526,0.279-0.54,0.279c-0.079,0.067-0.126,0.107-0.14,0.12
		c-0.066,0.12-0.123,0.167-0.17,0.141c-0.047-0.027-0.167-0.027-0.36,0c-0.193,0.026-0.363,0.026-0.51,0
		c-0.08-0.04-0.18-0.061-0.3-0.061c-0.12,0.066-0.567-0.16-1.34-0.68c-0.107-0.08-0.181-0.12-0.221-0.12
		c-0.039,0-0.126-0.013-0.26-0.04c-0.106-0.053-0.233-0.113-0.38-0.18c-0.439-0.253-0.7-0.427-0.78-0.521
		c-0.08-0.093-0.173-0.173-0.279-0.24c-0.107-0.066-0.167-0.14-0.181-0.22c-0.013-0.08-0.053-0.166-0.12-0.26
		c0-0.026-0.039-0.146-0.119-0.36c-0.107-0.173-0.141-0.3-0.101-0.38c0.014-0.08,0.007-0.143-0.02-0.189
		c-0.027-0.047-0.054-0.434-0.08-1.16c-0.027-0.727-0.014-1.123,0.04-1.19c0.053-0.066,0.08-0.227,0.08-0.479
		c-0.027-0.24,0.01-0.42,0.109-0.54c0.101-0.12,0.144-0.276,0.13-0.471c-0.013-0.192,0.007-0.343,0.061-0.449
		c0.053-0.054,0.1-0.261,0.14-0.62l0.08-0.36c0.16-0.32,0.24-0.536,0.24-0.649s0.026-0.25,0.08-0.41
		c0.013-0.026,0.093-0.253,0.24-0.681l0.14-0.279l0.06-0.24c0.334-0.68,0.54-1.073,0.62-1.18c0-0.054,0.087-0.301,0.261-0.74
		c-0.014-0.2,0.093-0.344,0.319-0.43c0.227-0.087,0.437-0.077,0.63,0.029c0.193,0.107,0.311,0.181,0.351,0.221
		c0.04,0.039,0.12,0.093,0.239,0.159C125.646,75.521,125.859,75.515,126.246,75.435z"/>
</g>
</svg>
